<svg width="24" height="24" viewBox="0 0 24 24" fill="none" xmlns="http://www.w3.org/2000/svg">
<path fill-rule="evenodd" clip-rule="evenodd" d="M8 5C8 3.34315 9.34315 2 11 2H13C14.6569 2 16 3.34315 16 5V6.17071C16.3128 6.06015 16.6494 6 17 6H19C20.6569 6 22 7.34315 22 9V19C22 20.6569 20.6569 22 19 22H5C3.34315 22 2 20.6569 2 19V13C2 11.3431 3.34315 10 5 10H7C7.35064 10 7.68722 10.0602 8 10.1707V5ZM10 20H14V5C14 4.44772 13.5523 4 13 4H11C10.4477 4 10 4.44772 10 5V20ZM16 20H19C19.5523 20 20 19.5523 20 19V9C20 8.44772 19.5523 8 19 8H17C16.4477 8 16 8.44772 16 9V20ZM8 20V13C8 12.4477 7.55228 12 7 12H5C4.44772 12 4 12.4477 4 13V19C4 19.5523 4.44772 20 5 20H8Z" fill="white"/>
</svg>
