<svg width="24" height="24" viewBox="0 0 24 24" fill="none" xmlns="http://www.w3.org/2000/svg">
<path fill-rule="evenodd" clip-rule="evenodd" d="M2 5C2 3.34315 3.34315 2 5 2L11 2C12.6569 2 14 3.34315 14 5V7C14 7.35064 13.9398 7.68722 13.8293 8H19C20.6569 8 22 9.34315 22 11V13C22 14.6569 20.6569 16 19 16H17.8293C17.9398 16.3128 18 16.6494 18 17V19C18 20.6569 16.6569 22 15 22H5C3.34315 22 2 20.6569 2 19L2 5ZM11.0012 10C11.0008 10 11.0004 10 11 10L4 10L4 14H19C19.5523 14 20 13.5523 20 13V11C20 10.4477 19.5523 10 19 10H11.0012ZM4 16L4 19C4 19.5523 4.44772 20 5 20H15C15.5523 20 16 19.5523 16 19V17C16 16.4477 15.5523 16 15 16H4ZM4 8L11 8C10.9998 8 11.0002 8 11 8C11.552 7.99962 12 7.55205 12 7V5C12 4.44772 11.5523 4 11 4L5 4C4.44772 4 4 4.44772 4 5V8Z" fill="white"/>
</svg>
