<svg width="14" height="14" viewBox="0 0 14 14" fill="none" xmlns="http://www.w3.org/2000/svg">
<path fill-rule="evenodd" clip-rule="evenodd" d="M8.23223 0.767767C9.20854 -0.208544 10.7915 -0.208544 11.7678 0.767767L12.4749 1.47487C13.4512 2.45118 13.4512 4.0341 12.4749 5.01041L4.34315 13.1421L1.10051 13.1421C0.548222 13.1421 0.100505 12.6944 0.100506 12.1421L0.100505 8.89949L8.23223 0.767767ZM10.3536 2.18198L11.0607 2.88909C11.2559 3.08435 11.2559 3.40093 11.0607 3.59619L10 4.65685L8.58579 3.24264L9.64645 2.18198C9.84171 1.98672 10.1583 1.98672 10.3536 2.18198ZM8.58579 6.07107L3.51472 11.1421L2.10051 11.1421L2.10051 9.72792L7.17157 4.65685L8.58579 6.07107Z" fill="#2C2C2C"/>
</svg>
