<svg width="24" height="24" viewBox="0 0 24 24" fill="none" xmlns="http://www.w3.org/2000/svg">
<path fill-rule="evenodd" clip-rule="evenodd" d="M5 4C4.44772 4 4 4.44772 4 5V15C4 15.5523 4.44772 16 5 16H19C19.5523 16 20 15.5523 20 15V5C20 4.44772 19.5523 4 19 4H5ZM2 5C2 3.34315 3.34315 2 5 2H19C20.6569 2 22 3.34315 22 5V15C22 16.6569 20.6569 18 19 18H13V20H17C17.5523 20 18 20.4477 18 21C18 21.5523 17.5523 22 17 22H7C6.44772 22 6 21.5523 6 21C6 20.4477 6.44772 20 7 20H11V18H5C3.34315 18 2 16.6569 2 15V5ZM17.7071 6.29289C18.0976 6.68342 18.0976 7.31658 17.7071 7.70711L14.7071 10.7071C14.5196 10.8946 14.2652 11 14 11H10.4142L7.70711 13.7071C7.31658 14.0976 6.68342 14.0976 6.29289 13.7071C5.90237 13.3166 5.90237 12.6834 6.29289 12.2929L9.29289 9.29289C9.48043 9.10536 9.73478 9 10 9H13.5858L16.2929 6.29289C16.6834 5.90237 17.3166 5.90237 17.7071 6.29289Z" fill="white"/>
</svg>
