<svg width="16" height="20" viewBox="0 0 16 20" fill="none" xmlns="http://www.w3.org/2000/svg">
<path d="M7.99999 0.588242C5.05881 0.588242 2.70587 2.94118 2.70587 5.88236V8.2353C1.70587 8.2353 0.941162 9.00001 0.941162 10V17.6471C0.941162 18.6471 1.70587 19.4118 2.70587 19.4118H13.2941C14.2941 19.4118 15.0588 18.6471 15.0588 17.6471V10C15.0588 9.00001 14.2941 8.2353 13.2941 8.2353V5.88236C13.2941 2.94118 10.9412 0.588242 7.99999 0.588242ZM13.8823 10V17.6471C13.8823 18 13.647 18.2353 13.2941 18.2353H2.70587C2.35293 18.2353 2.11763 18 2.11763 17.6471V10C2.11763 9.64707 2.35293 9.41177 2.70587 9.41177H13.2941C13.647 9.41177 13.8823 9.64707 13.8823 10ZM3.88234 8.2353V5.88236C3.88234 3.58824 5.70587 1.76471 7.99999 1.76471C10.2941 1.76471 12.1176 3.58824 12.1176 5.88236V8.2353H3.88234Z" fill="white"/>
<path d="M7.99999 11.1765C6.99999 11.1765 6.23528 11.9412 6.23528 12.9412C6.23528 13.7059 6.70587 14.3529 7.41175 14.5882V15.8824C7.41175 16.2353 7.64704 16.4706 7.99999 16.4706C8.35293 16.4706 8.58822 16.2353 8.58822 15.8824V14.5882C9.2941 14.3529 9.76469 13.7059 9.76469 12.9412C9.76469 11.9412 8.99999 11.1765 7.99999 11.1765ZM7.99999 13.5294C7.64704 13.5294 7.41175 13.2941 7.41175 12.9412C7.41175 12.5882 7.64704 12.3529 7.99999 12.3529C8.35293 12.3529 8.58822 12.5882 8.58822 12.9412C8.58822 13.2941 8.35293 13.5294 7.99999 13.5294Z" fill="white"/>
</svg>
