<svg width="24" height="20" viewBox="0 0 24 20" fill="none" xmlns="http://www.w3.org/2000/svg">
<path fill-rule="evenodd" clip-rule="evenodd" d="M18.2855 4.90174e-08C17.9568 0.000134087 17.6714 0.270045 17.5276 0.666147L18.2855 4.90174e-08ZM17.5276 0.666147L12.7806 7.50739L12.7212 7.60437C12.5033 8.0082 12.5231 8.59211 12.7806 8.9632L12.8479 9.04883C13.1281 9.36283 13.5333 9.33428 13.7908 8.9632L17.4286 3.72117V18.75L17.4343 18.8958C17.4839 19.5175 17.8461 20 18.2857 20C18.7591 20 19.1429 19.4404 19.1429 18.75V3.72117L22.7806 8.9632L22.8479 9.04883C23.1281 9.36283 23.5333 9.33428 23.7908 8.9632C24.0697 8.56119 24.0697 7.9094 23.7908 7.50739L19.0438 0.66615C18.9 0.269948 18.6145 0 18.2857 0M6.56566 1.10422C6.51615 0.48255 6.15386 0 5.71429 0C5.2409 0 4.85714 0.559644 4.85714 1.25V16.2788L1.21936 11.0368L1.15207 10.9512C0.871863 10.6372 0.466698 10.6657 0.209209 11.0368C-0.0697365 11.4388 -0.0697365 12.0906 0.209209 12.4926L4.95619 19.3339C5.09997 19.7301 5.38551 20 5.71429 20C6.04306 20 6.3286 19.7301 6.47238 19.3339L11.2194 12.4926L11.2788 12.3956C11.4967 11.9918 11.4769 11.4079 11.2194 11.0368L11.1521 10.9512C10.8719 10.6372 10.4667 10.6657 10.2092 11.0368L6.57143 16.2788V1.25L6.56566 1.10422Z" fill="white"/>
</svg>
